<svg width="434" height="393" viewBox="0 0 434 393" fill="none" xmlns="http://www.w3.org/2000/svg">
<path d="M217 7.92108L261.421 116.472L262.45 118.985L265.053 118.211L383.731 82.9124L320.521 182.375L318.894 184.935L321.471 186.534L424.701 250.564L301.66 266.613L298.797 266.986L299.06 269.862L309.646 385.313L218.983 305.434L217 303.687L215.017 305.434L124.354 385.313L134.94 269.862L135.203 266.986L132.34 266.613L9.29867 250.564L112.529 186.534L115.106 184.935L113.479 182.375L50.2692 82.9124L168.947 118.211L171.55 118.985L172.579 116.472L217 7.92108Z" stroke="#44BBFF" stroke-width="6"/>
</svg>
